<?xml version="1.0" encoding="utf-8"?>
<!-- Generator: Adobe Illustrator 19.1.0, SVG Export Plug-In . SVG Version: 6.00 Build 0)  -->
<svg version="1.1" id="Шар_1" xmlns="http://www.w3.org/2000/svg" xmlns:xlink="http://www.w3.org/1999/xlink" x="0px" y="0px"
	 viewBox="0 0 138.7 99.5" style="enable-background:new 0 0 138.7 99.5;" xml:space="preserve">
<style type="text/css">
	.st0{fill:#FFFFFF;}
</style>
<g>
	<g>
		<path class="st0" d="M107,77.8h17.2l-11.6-24.1L97.1,62c0,0,4.1,9.4,5.3,12.7C103.7,77.8,107,77.8,107,77.8z M2.7,96.7h125.1V85.4
			H2.7V96.7z M105.7,37.7L92.7,9H73.9L47.5,58.4c0,0,13-0.4,21.3-6.7c2.1-1.2,7.6-15.9,13-26.4c0.4-1.3,0.9,0,0.9,0l8.1,20.3
			C78,52.1,65.9,57.9,59.3,59.7c-17.2,5-38.2,8-45.7,1.3c-7.1-6.3,9.3-32.7,40.2-38.6c5-1.2,8-0.8,8-0.8c0,0-2.5-9.7-3.8-10.9
			c-2.5-2.6-4.6-3.4-7.9-3c-6.7,0.4-35.2,8-46.5,31.8C-2.7,53,6.1,67.3,11.5,71c1.7,1.3,18.4,16,55.7,1.3
			c36.9-14.3,69.9-36.9,70-36.9V20.3C137.1,20.3,122.6,28.6,105.7,37.7z M112.9,27.5c4.6-1.7,24.3-13,24.3-13v-13
			c0,0-27.2,15.1-30.2,16c-2.5,0.4-3.7,0.4-3.7,0.4c0,0,2.5,7.5,3.3,8.3C107,27,108.6,29.1,112.9,27.5z"/>
	</g>
</g>
</svg>
