<?xml version="1.0" encoding="utf-8"?>
<!-- Generator: Adobe Illustrator 16.0.0, SVG Export Plug-In . SVG Version: 6.00 Build 0)  -->
<!DOCTYPE svg PUBLIC "-//W3C//DTD SVG 1.1//EN" "http://www.w3.org/Graphics/SVG/1.1/DTD/svg11.dtd">
<svg version="1.1" id="Calque_1" xmlns="http://www.w3.org/2000/svg" xmlns:xlink="http://www.w3.org/1999/xlink" x="0px" y="0px"
	 width="387.531px" height="41.438px" viewBox="0 0 387.531 41.438" enable-background="new 0 0 387.531 41.438"
	 xml:space="preserve">
<g>
	<g>
		<g>
			<path fill="#6A737B" d="M41.155,26.106l6.538-3.502l4.86,10.1h-7.23c0,0.006-1.391,0.006-1.947-1.248
				C42.858,30.069,41.167,26.108,41.155,26.106L41.155,26.106z"/>
			<rect x="1.522" y="35.929" fill="#6A737B" width="52.583" height="4.705"/>
			<path fill="#6A737B" d="M38.503,19.204c-5.365,2.748-10.46,5.162-13.203,5.938c-7.238,2.086-16.056,3.338-19.223,0.531
				c-2.979-2.648,3.899-13.727,16.91-16.191c2.093-0.521,3.341-0.352,3.341-0.336c0-0.016-1.039-4.07-1.586-4.584
				c-1.053-1.086-1.921-1.432-3.339-1.254C18.588,3.476,6.606,6.673,1.88,16.657c-2.636,5.674,1.044,11.648,3.334,13.209
				c0.696,0.559,7.747,6.699,23.394,0.563c15.501-6.018,29.387-15.496,29.398-15.496v-6.34C58,8.587,51.878,12.095,44.772,15.903
				l-5.43-12.039h-7.898L20.348,24.579c0.009,0.004,5.459-0.168,8.951-2.803c0.885-0.521,3.375-7.063,5.654-11.463l0,0l0,0
				L38.503,19.204L38.503,19.204z"/>
		</g>
		<path fill="#6A737B" d="M58.006,6.122c-0.012-0.002-8.273,4.748-10.209,5.473c-1.779,0.701-2.475-0.205-2.642-0.557
			c-0.353-0.344-1.397-3.492-1.392-3.5c-0.006,0.008,0.516,0.008,1.563-0.168c1.247-0.357,12.668-6.701,12.68-6.697V6.122
			L58.006,6.122z"/>
	</g>
</g>
<g>
	<g>
		<path fill="#6A737B" d="M88.625,13.514c0,0-0.037,2.573,0,3.96c-3.98-1.365-10.142-2.749-13.409,0.893
			c-1.56,1.82-1.903,4.725-0.964,6.942c1.114,2.786,4.117,3.779,6.963,3.797c2.565,0.071,5.014-0.478,7.311-1.186l0.013,3.868
			c-5.337,1.773-13.04,2.458-17.445-1.878c-1.757-1.764-2.766-3.968-2.995-6.448c-0.161-1.47,0.076-2.909,0.403-4.225
			c0.15-0.326,0.192-0.603,0.387-0.918l0.138-0.298c2.557-4.684,7.639-6.333,12.841-5.974C84.237,12.23,86.464,12.768,88.625,13.514
			z"/>
		<path fill="#6A737B" d="M136.473,16.06l-14.442,0.003v13.004c0,0,14.742,0.019,15.152-0.016l-1.586,3.576l-18.683,0.011V12.541
			l18.34-0.009L136.473,16.06z"/>
		<path fill="#6A737B" d="M133.762,20.817c-0.848,1.183-1.372,2.746-2.917,3.151l-1.221,0.111h-7.33
			c0.586-0.984,1.112-1.905,1.741-2.803c0.621-0.725,1.557-0.7,2.484-0.716l7.37,0.005L133.762,20.817z"/>
		<path fill="#6A737B" d="M104.744,12.513c2.873,0.145,6.085,0.724,7.375,3.596c0.858,1.682,0.733,4.089-0.288,5.649
			c-0.822,1.244-3.491,2.3-3.491,2.3l5.504,8.569h-5.796l-4.638-7.116l-0.168-0.101h-4.85c0,0,1.007-2.572,2.173-3.41
			c2.397-0.429,6.153,0.545,6.696-2.693c0.018-0.884-0.141-1.776-0.899-2.325c-1.091-0.832-2.595-0.629-3.992-0.756l-5.141,0.017
			c-0.013,1.786,0,16.385,0,16.385c-1.825,0-3.478,0-5.239,0V12.513H104.744z"/>
		<polygon fill="#6A737B" points="127.354,8.046 124.72,11.746 128.566,11.746 132.189,8.046 		"/>
		<path fill="#6A737B" d="M153.938,17.175c-2.431-1.329-5.488-1.046-8.433-1.025v13.002c4.135-0.013,9.028,0.535,10.794-3.79
			c0.848-2.045,0.705-4.825-0.605-6.603C155.202,18.125,154.609,17.561,153.938,17.175z M161.371,18.354
			c1.532,3.39,1.067,8.013-1.487,10.785c-2.534,2.862-6.084,3.456-9.823,3.508h-9.746l0.015-20.139l6.042-0.004
			C152.131,12.478,158.833,12.399,161.371,18.354"/>
		<rect x="166.268" y="12.513" fill="#6A737B" width="5.364" height="20.137"/>
		<path fill="#6A737B" d="M195.403,12.504c-0.391,0.932-0.595,2.041-1.23,2.915c-0.438,0.488-1.116,0.548-1.708,0.61h-5.189v16.61
			c-1.825-0.009-3.409-0.002-5.201,0l-0.009-16.616h-7.825c0,0,1.041-2.336,1.586-3.52H195.403z"/>
	</g>
</g>
<path fill="#6A737B" d="M225.824,12.555c0.838,1.913,9.469,20.115,9.469,20.115h-5.66l-7.486-16.525
	c-0.589,1.177-3.734,8.394-3.734,8.394s6.375,0,6.986,0c-0.698,1.299-1.283,3.434-3.078,3.626l-5.664,0.016
	c-0.771,1.458-1.41,3.067-2.141,4.495l-5.276-0.005l9.587-20.115H225.824z"/>
<path fill="#6A737B" d="M257.013,13.438c0,1.404,0.02,2.587,0.02,3.896c-4.074-1.153-9.571-2.341-13.417,0.064
	c-2.294,1.617-3.054,4.443-2.414,7.124c0.332,1.422,1.19,2.841,2.529,3.685c2.824,1.782,6.633,1.324,9.839,0.71l-0.005-4.372
	l-6.431-0.005c0.348-1.075,0.765-2.106,1.468-3.03c0.336-0.354,0.785-0.449,1.226-0.526c2.924,0.015,5.565,0.006,8.518,0.006v10.603
	c-5.883,1.466-14.046,2.854-19.293-1.065c-2.985-2.443-3.922-5.991-3.54-9.742c0.404-3.45,3.477-6.619,6.711-7.64
	C246.83,11.536,252.462,11.982,257.013,13.438z"/>
<path fill="#6A737B" d="M275.65,12.565c2.864,0.139,6.105,0.718,7.371,3.591c0.866,1.683,0.746,4.092-0.289,5.647
	c-0.812,1.246-3.486,2.307-3.486,2.307l5.519,8.56h-5.814l-4.634-7.11l-0.17-0.104h-4.848c0,0,0.995-2.566,2.162-3.399
	c2.408-0.435,6.16,0.536,6.708-2.713c0.033-0.867-0.144-1.76-0.9-2.311c-1.085-0.83-2.611-0.637-3.978-0.752l-5.166,0.012
	c-0.014,1.785,0,16.377,0,16.377c-1.82,0-3.477,0-5.269,0l0.002-20.104H275.65z"/>
<rect x="288.218" y="12.565" fill="#6A737B" width="5.365" height="20.122"/>
<path fill="#6A737B" d="M317.825,13.56c0,0-0.047,2.569,0.017,3.957c-3.989-1.36-10.147-2.748-13.419,0.908
	c-1.553,1.811-1.892,4.717-0.955,6.934c1.122,2.782,4.135,3.777,6.96,3.801c2.557,0.064,5.015-0.48,7.295-1.198l0.002,3.864
	c-5.312,1.792-13.008,2.462-17.393-1.862c-1.76-1.772-2.778-3.979-3.009-6.447c-0.155-1.467,0.087-2.915,0.421-4.227
	c0.135-0.331,0.182-0.606,0.367-0.927l0.158-0.293c2.542-4.68,7.623-6.332,12.791-5.97C313.437,12.285,315.689,12.813,317.825,13.56
	z"/>
<path fill="#6A737B" d="M386.584,16.101l-14.445,0.01v13.008c0,0,14.761,0.016,15.158-0.018l-1.578,3.569l-18.708,0.005V12.588
	l18.354-0.01L386.584,16.101z"/>
<path fill="#6A737B" d="M383.893,20.558c-0.87,1.191-1.39,2.746-2.931,3.152l-1.226,0.105h-7.334
	c0.588-0.978,1.112-1.901,1.757-2.792c0.626-0.73,1.546-0.706,2.478-0.718l7.359,0.005L383.893,20.558z"/>
<path fill="#6A737B" d="M353.128,29.088c0.778,0.006,11.693,0,11.693,0s-1.104,2.481-1.623,3.591h-15.397l-0.008-20.113
	c1.802-0.016,3.526,0.009,5.333,0.006L353.128,29.088z"/>
<path fill="#6A737B" d="M334.962,16.163c-2.52-0.967-5.697-0.676-7.694,1.223c-2.065,2.044-2.461,5.448-1.52,8.164
	c0.581,1.973,2.602,3.457,4.519,3.899c2.543,0.507,5.41-0.06,7.118-2.255c1.731-2.364,1.879-6.202,0.353-8.719
	C337.109,17.457,336.029,16.588,334.962,16.163z M343.399,17.997c1.648,3.374,1.274,8.104-1.134,11.002
	c-3.256,3.901-8.301,4.587-13.151,3.986c-3.531-0.6-7.29-2.605-8.725-6.178c-1.416-3.24-0.995-7.636,1.174-10.393
	c3.293-4.108,8.55-4.852,13.686-4.108C338.502,12.908,341.91,14.736,343.399,17.997"/>
<rect x="-35.26" y="-32.91" fill="none" width="459.338" height="110.32"/>
</svg>
